<?xml version="1.0" standalone="no"?>
<!DOCTYPE svg PUBLIC "-//W3C//DTD SVG 20010904//EN"
 "http://www.w3.org/TR/2001/REC-SVG-20010904/DTD/svg10.dtd">
<svg version="1.0" xmlns="http://www.w3.org/2000/svg"
 width="225.000000pt" height="225.000000pt" viewBox="0 0 225.000000 225.000000"
 preserveAspectRatio="xMidYMid meet">
<metadata>
Created by potrace 1.14, written by Peter Selinger 2001-2017
</metadata>
<g transform="translate(0.000000,225.000000) scale(0.100000,-0.100000)"
fill="#000000" stroke="none">
<path d="M1707 1929 c-43 -75 -136 -188 -208 -250 -107 -93 -185 -145 -335
-221 -79 -40 -144 -75 -144 -78 0 -3 20 -12 44 -19 99 -29 158 -90 155 -163
-1 -18 6 -52 14 -74 12 -32 14 -50 6 -78 l-10 -37 -45 50 c-57 63 -110 85
-197 79 -149 -9 -315 -141 -401 -319 -57 -119 -81 -232 -72 -338 11 -131 19
-136 32 -23 33 271 148 351 604 417 248 36 337 69 404 146 33 39 44 59 31 59
-2 0 -27 -9 -55 -20 -73 -29 -78 -25 -23 18 67 53 108 103 143 172 l29 58
-125 -64 c-141 -72 -176 -82 -94 -27 82 54 170 151 207 225 30 60 69 195 60
204 -2 2 -18 -17 -37 -42 -33 -47 -125 -121 -192 -155 -21 -10 -39 -19 -40
-19 -2 0 33 37 77 83 108 111 166 229 195 396 6 34 10 65 8 66 -2 2 -16 -18
-31 -46z"/>
<path d="M1170 1212 c0 -5 7 -15 15 -22 8 -7 15 -8 15 -2 0 5 -7 15 -15 22 -8
7 -15 8 -15 2z"/>
<path d="M1250 858 c-136 -16 -334 -47 -380 -61 l-45 -13 100 -14 c150 -22
251 -19 300 8 42 23 112 79 104 85 -2 1 -38 -1 -79 -5z"/>
<path d="M870 724 c41 -26 89 -53 107 -60 40 -17 118 -17 157 -1 28 12 26 14
-80 45 -107 31 -230 62 -249 62 -5 0 24 -21 65 -46z"/>
</g>
</svg>
